<svg xmlns="http://www.w3.org/2000/svg" width="40" height="40" viewBox="0 0 40 40">
    <g fill="none" fill-rule="evenodd">
        <g>
            <g>
                <path d="M0 0H40V40H0z" transform="translate(-1748.000000, -2397.000000) translate(1748.000000, 2397.000000)"/>
                <g fill-rule="nonzero">
                    <path fill="#0E7C82" d="M15.092 16.6l-13.8 5.6C.52 22.46 0 23.185 0 24c0 .815.52 1.54 1.292 1.8l13.8 5.6c1.92.8 4.08.8 6 0l13.8-5.6c.69-.334 1.128-1.033 1.128-1.8 0-.767-.438-1.466-1.128-1.8l-13.8-5.6c-1.92-.8-4.08-.8-6 0z" transform="translate(-1748.000000, -2397.000000) translate(1748.000000, 2397.000000) translate(2.000000, 4.000000)"/>
                    <path fill="#0B8C90" d="M15.092 8.6l-13.8 5.6C.52 14.46 0 15.185 0 16c0 .815.52 1.54 1.292 1.8l13.8 5.6c1.92.8 4.08.8 6 0l13.8-5.6c.69-.334 1.128-1.033 1.128-1.8 0-.767-.438-1.466-1.128-1.8l-13.8-5.6c-1.92-.8-4.08-.8-6 0z" transform="translate(-1748.000000, -2397.000000) translate(1748.000000, 2397.000000) translate(2.000000, 4.000000)"/>
                    <path fill="#00B2B2" d="M15.092.6l-13.8 5.6C.602 6.534.164 7.233.164 8c0 .767.438 1.466 1.128 1.8l13.8 5.6c1.92.8 4.08.8 6 0l13.8-5.6c.69-.334 1.128-1.033 1.128-1.8 0-.767-.438-1.466-1.128-1.8L21.092.6c-1.92-.8-4.08-.8-6 0z" transform="translate(-1748.000000, -2397.000000) translate(1748.000000, 2397.000000) translate(2.000000, 4.000000)"/>
                </g>
            </g>
        </g>
    </g>
</svg>
